# xmcd
#
# Track frame offsets:
#	150
#	13860
#	23762
#	28067
#	47647
#	62610
#	79950
#	90480
#	98172
#	119955
#	137255
#	147230
#	161140
#	178832
#	200790
#	210025
#	231130
#	244207
#	256045
#	265835
#
# Disc length: 3679 seconds
#
# Revision: 0
# Processed by: cddbd v1.4PL0 Copyright (c) Steve Scherf et al.
# Submitted via: EasyCDDAExtractor 4.6.9.1
#
DISCID=150e5d14
DTITLE=Michael Hananson-Stacy - Bottle on my finger...Bluse to my shoes
DYEAR=1993
DGENRE=Blues
TTITLE0=Down To My Soul
TTITLE1=Atlanta Moan (Barbecue Bob)
TTITLE2=Keep Your Lamps Trimmed and Burning (Traditional)
TTITLE3=Watch What You're Doing (Norman-Estes-M.H.S)
TTITLE4=St. Valentine's Blues
TTITLE5=It Hurts Us So
TTITLE6=Lake Of Fire
TTITLE7=Ball And The Cross
TTITLE8=Civil War Song
TTITLE9=New Cool Glass Of Water Blues
TTITLE10=Wrong Turn Blues
TTITLE11=Heather And Snow
TTITLE12=How 'bout You
TTITLE13=The Dry Bones
TTITLE14=Shake The Dust
TTITLE15=Philco Blues
TTITLE16=Gone But Not Forgotten
TTITLE17=John The Revelator (Traditional)
TTITLE18=Michael's Kind Of Blues
TTITLE19=Amanda's Lullaby
EXTD=
EXTT0=
EXTT1=
EXTT2=
EXTT3=
EXTT4=
EXTT5=
EXTT6=
EXTT7=
EXTT8=
EXTT9=
EXTT10=
EXTT11=
EXTT12=
EXTT13=
EXTT14=
EXTT15=
EXTT16=
EXTT17=
EXTT18=
EXTT19=
PLAYORDER=
